<svg xmlns="http://www.w3.org/2000/svg" width="24" height="24"><path d="M21.35 11.1H12v2.8h5.35c-.25 1.4-1.5 4.05-5.35 4.05-3.25 0-5.9-2.7-5.9-6s2.65-6 5.9-6c1.85 0 3.1.8 3.8 1.5l2.6-2.5C17.15 3.15 14.8 2 12 2 6.5 2 2 6.5 2 12s4.5 10 10 10c5.75 0 9.55-4.05 9.55-9.75 0-.65-.1-1.15-.2-1.6z" fill="#4285F4"></path><path d="M3.15 7.05l2.3 1.7C6.3 6.9 8.95 5 12 5c1.85 0 3.1.8 3.8 1.5l2.6-2.5C17.15 3.15 14.8 2 12 2 8.2 2 5 4.25 3.15 7.05z" fill="#EA4335"></path><path d="M12 22c2.75 0 5.25-.95 7.05-2.5l-2.6-2.5c-.95.75-2.3 1.5-4.45 1.5-3.85 0-5.6-2.65-5.9-4.05l-2.3 1.8C5 19.75 8.2 22 12 22z" fill="#34A853"></path><path d="M3.15 7.05C2.45 8.45 2 10.15 2 12s.45 3.55 1.15 4.95L5.45 15c-.25-.75-.4-1.6-.4-3s.15-2.25.4-3l-2.3-1.95z" fill="#FBBC04"></path></svg>
